# xmcd
#
# Track frame offsets:
#	150
#	17173
#	32527
#	49894
#	66186
#	82799
#	95416
#	113932
#	130440
#	143575
#	163134
#	178816
#
# Disc length: 2604 seconds
#
# Revision: 1
# Processed by: cddbd v1.5.1PL2 Copyright (c) Steve Scherf et al.
# Submitted via: audiograbber 1.83.01
#
DISCID=9f0a2a0c
DTITLE=Peter Kotula - Pod so mnou
DYEAR=2005
DGENRE=Pop
TTITLE0=Blazniva jazda
TTITLE1=Jo to o Tebe
TTITLE2=Amor nedochvilny
TTITLE3=Hlavu stracam
TTITLE4=Tak ako
TTITLE5=Nestrat svoju tvar
TTITLE6=Ked sniva boh
TTITLE7=Pod so mnou
TTITLE8=Businessman
TTITLE9=Party
TTITLE10=Nadej
TTITLE11=Tak ako (Orchestral bonus)
EXTD=
EXTT0=
EXTT1=
EXTT2=
EXTT3=
EXTT4=
EXTT5=
EXTT6=
EXTT7=
EXTT8=
EXTT9=
EXTT10=
EXTT11=
PLAYORDER=
